mtllib Hat.mtl
v 0.04524982 0.1096523 0.1312833
v -0.02435672 0.0954802 0.1714707
v -0.0351249 0.0954802 0.1312833
v 0.005062461 0.0954802 0.2008899
v 0.04524982 0.0954802 0.2116581
v 0.08543718 0.0954802 0.2008899
v 0.1148564 0.0954802 0.1714707
v 0.1256245 0.0954802 0.1312833
v 0.1148564 0.0954802 0.09109595
v 0.08543718 0.0954802 0.06167677
v 0.04524982 0.0954802 0.05090863
v 0.005062461 0.0954802 0.06167677
v -0.02435678 0.0954802 0.09109598
v -0.08556771 0.05467272 0.2068109
v -0.1058053 0.05467272 0.1312833
v -0.03027773 0.05467272 0.2621009
v 0.1207774 0.04084492 0.2504979
v 0.04524982 0.04084492 0.2707354
v 0.1760674 0.05467272 0.2068109
v 0.1963049 0.05467272 0.1312833
v 0.1760674 0.05467272 0.05575576
v 0.04524982 0.0746727 -0.01977175
v -0.03027773 0.0746727 0.0004658103
v -0.1110002 -0.007847548 0.2330413
v -0.1382661 -0.007847548 0.1312833
v -0.05650818 -0.007847548 0.3075334
v 0.1472123 -0.02239037 0.2826267
v 0.04545432 -0.02239037 0.3098927
v 0.2214998 -0.007847548 0.2330413
v 0.1914998 -0.007847548 0.02952531
v 0.2187658 -0.007847548 0.1312833
v 0.1307774 0.06467271 -0.00953418
v -0.09556776 0.0746727 0.05575582
v -0.1351743 -0.08454037 0.2469983
v -0.16618 -0.08454037 0.1312833
v -0.07046509 -0.08454037 0.3317075
v 0.04545432 -0.09908307 0.3378065
v 0.1611693 -0.09908307 0.3068008
v 0.2456739 -0.08454037 0.2469983
v 0.2466796 -0.08454037 0.1312833
v 0.2156739 -0.08454037 0.01556838
v 0.1609647 -0.08454037 -0.06914079
v -0.07632959 -0.08397973 -0.06680772
v 0.03938532 -0.08397973 -0.0978134
v -0.1551743 -0.08454037 0.01556849
v -0.1457269 -0.08958256 0.2398258
v 0.1510494 -0.09945679 -0.1560594
v -0.1239441 -0.09353316 -0.2014067
v -0.008229196 -0.09353316 -0.2324123
v -0.2147492 -0.09808016 -0.05400571
v -0.2004646 -0.09131026 0.03863883
v 0.03475654 0.007638931 0.1831852
v 0.1670404 -0.1016463 -0.06521645
v 0.04739636 -0.1024312 -0.09815753
v -0.07264155 -0.1026077 -0.06726351
v -0.1646826 -0.1010246 0.02302074
v 0.1535124 -0.1126162 -0.1489899
v 0.204067 -0.1065186 -0.06290954
v 0.1995932 -0.09857821 -0.06671068
v -0.008710265 -0.1058792 -0.2242078
v -0.1248349 -0.1058228 -0.1930403
v -0.2160984 -0.1098814 -0.04436716
v -0.2057409 -0.0988313 0.04505253
v 0.003785849 -0.05196083 -0.08168218
v 0.04049718 -0.05313873 -0.09073809
v 0.007125556 -0.02931857 -0.07108834
v 0.006331027 -0.05750084 -0.07064387
v 0.009670734 -0.0348587 -0.06005004
v 0.0430423 -0.05867863 -0.07969978
v 0.008247554 0.06164289 -0.02569434
v -0.0102517 0.01958108 -0.04253921
v -0.05405998 -0.02735543 -0.05599517
v -0.07362354 -0.04927528 -0.06241232
v 0.01079273 0.05610275 -0.01465604
v -0.007706523 0.01404119 -0.03150091
v -0.0515148 -0.03289557 -0.04495686
v -0.07107836 -0.05481505 -0.05137402
v -0.03250593 0.006937742 -0.04177263
v -0.02996069 0.001397848 -0.0307343
vn 0 1 0
vn 0 1 0
vn 0 1 0
vn 0 1 0
vn 0 1 0
vn 0 1 0
vn 0 1 0
vn 0 1 0
vn 0 1 0
vn 0 1 0
vn 0 1 0
vn 0 1 0
vn -0.3420202 0.9396927 0
vn -0.2961981 0.9396927 0.1710101
vn -0.1710101 0.9396927 0.2961982
vn 0.1789903 0.722313 0.6680017
vn 0.1710101 0.9396927 0.2961981
vn 0.2961981 0.9396927 0.1710101
vn 0.3420202 0.9396927 -2.990036E-08
vn 0.2961981 0.9396927 -0.1710102
vn 0.07545442 0.9565606 -0.2815999
vn -0.07545443 0.9565605 -0.2816001
vn -0.2061455 0.9565606 -0.2061454
vn -0.2961982 0.9396927 -0.17101
vn -0.8634269 0.4482955 0.2313545
vn -0.5566704 0.7660444 0.3213938
vn 0.01411139 0.5839192 0.8116891
vn 0.2220369 0.5138449 0.8286514
vn 0.4056343 0.5882714 0.6995695
vn 0.5566704 0.7660444 0.3213938
vn 0.9125429 0.3278378 -0.2445155
vn 0.7820118 0.3952243 -0.4819288
vn -0.8875042 0.4607964 0.0017216
vn -0.9112507 0.3316682 0.2441688
vn -0.7657669 0.3159279 0.5601702
vn -0.01217811 0.3026195 0.9530336
vn 0.2441689 0.3316686 0.9112505
vn 0.5137899 0.3076915 0.8008407
vn 0.9532759 0.3019876 0.008285048
vn 0.9112509 0.3316675 -0.244169
vn 0.7894887 0.3416442 -0.5098891
vn 0.1544738 0.3933089 -0.9063366
vn -0.2329015 0.4361722 -0.8692012
vn -0.5926996 0.3985594 -0.6998982
vn -0.935962 0.3406619 -0.08901955
vn -0.6206468 0.624513 0.4741108
vn 0.04557411 0.9836881 -0.1740139
vn -0.01733259 0.9977551 -0.06468625
vn -0.1098553 0.9890634 -0.09841501
vn -0.1703911 0.9843183 -0.04565613
vn 0.4400681 -0.8893286 -0.1242364
vn 0.3893478 -0.8804439 -0.2706047
vn -0.07364277 -0.8231374 -0.5630468
vn -0.1486441 -0.8186326 -0.5547483
vn -0.2130378 -0.8367125 -0.5045067
vn -0.3995801 -0.9166918 -0.003472419
vn -0.3759874 -0.9211318 0.1007456
vn -0.1874654 -0.9320028 0.3102053
vn -0.09279127 -0.9286553 0.3591504
vn 0.0956596 -0.9255294 0.3663939
vn 0.2681554 -0.9188532 0.289485
vn 0.3815698 -0.9130081 0.1442941
vn -0.9381653 -0.2897559 0.1894396
vn -0.1381907 -0.9789041 0.1504998
vn 0.8903967 0.3867688 -0.2400074
vn -0.8436393 -0.3734757 0.3857311
vn -0.03056972 -0.9904243 0.1346295
vn 0.9847544 0.1135051 -0.131816
vn 0.3886127 -0.3785512 -0.8400471
vn -0.9129083 0.2728361 0.3035769
vn 0.007633714 -0.9996841 0.02394774
vn 0.9202496 -0.240836 -0.3084455
vn -0.2181132 -0.5383421 -0.8140113
vn -0.7052028 0.495113 0.5074959
vn 0.06355239 -0.9945852 0.08222865
vn 0.90535 0.1885547 -0.380511
vn -0.8022061 -0.3199784 -0.5040626
vn -0.7059105 0.675879 0.2118443
vn -0.02650395 -0.9883131 0.1501157
vn 0.6776438 -0.5895773 -0.4395424
vn 0.08501117 0.9913054 -0.1004327
vn -0.9202496 0.240836 0.3084455
vn -0.06803937 -0.9960225 0.05753067
vn -0.1043634 0.9939704 -0.03363039
vn 0.9129083 -0.272836 -0.303577
vn 0.05131158 -0.9986737 0.004235183
vn -0.9847544 -0.1135051 0.131816
vn 0.3453139 0.9116033 -0.2230195
vn 0.7052023 -0.4951141 -0.5074956
vn -0.9784439 0.1856816 0.09038703
vn 0.9381656 0.2897548 -0.1894397
vn 0.8436393 0.3734757 -0.3857311
vn -0.90535 -0.1885546 0.3805109
vn -0.6776435 0.5895776 0.4395423
vn -0.646998 0.4490933 -0.6162051
vn 0.3385219 -0.5299163 -0.7775549
vn 0.2095969 0.4253386 -0.8804296
vn -0.4998927 0.8556669 0.1339457
vn -0.1551696 0.9877777 -0.01475777
vn -0.7846375 0.6152764 0.07602022
vn 0.8754034 -0.09117519 -0.4747168
vn 0.8325992 0.2273113 -0.5050824
vn 0.3457844 0.9174247 -0.1968885
vn 0.121283 -0.9867373 0.1078886
vn -0.1425192 -0.9474458 0.2864172
vn 0.3991219 0.906449 -0.1380282
vn 0.1471192 0.9385067 -0.3123479
vn 0.7711275 0.3645306 -0.521996
vn -0.177171 0.9616858 -0.209215
vn -0.3620165 0.9120887 0.1924531
vn -0.9208558 0.3732271 -0.1128101
vn -0.2329019 0.436172 -0.8692012
vn 0.9408094 0.3379922 -0.02527735
vn 0.9393935 0.3419105 -0.02523924
vn -0.7474641 0.3395169 0.5709864
vn -0.6993734 0.499139 0.5116026
vn 0.05535194 0.5257891 0.848812
vn 0.02702826 0.3418953 0.9393492
vn 0.3908001 0.5415447 0.7443147
vn 0.4744532 0.3420157 0.8111223
vn 0.05670208 0.7329885 0.6778737
vn 0.2934925 0.7396924 0.6055719
vn 0 0 0
vn 0.2018364 -0.4393322 0.8753568
vn -0.1324241 -0.8977849 -0.4200549
vn -0.2018363 0.4393336 -0.8753561
vn -0.2018361 0.4393322 -0.8753569
vn 0.9501989 0.3045196 -0.06625798
vn 0.2018363 -0.4393337 0.8753561
vn -0.9344446 -0.3541032 0.03774009
vn 0.1324237 0.8977849 0.420055
vn 0.2026151 -0.439357 0.8751643
vn -0.1355185 -0.8976814 -0.4192886
vn -0.7317825 0.5263811 0.4329173
vn -0.2921534 0.4635112 -0.8365429
vn -0.7842826 0.462842 0.4131322
vn 0.2921515 -0.4635107 0.8365437
vn 0.4200254 -0.7685654 -0.4825825
usemtl mat8
f 3//1 2//1 1//1
f 2//2 4//2 1//2
f 4//3 5//3 1//3
f 5//4 6//4 1//4
f 6//5 7//5 1//5
f 7//6 8//6 1//6
f 8//7 9//7 1//7
f 9//8 10//8 1//8
f 10//9 11//9 1//9
f 11//10 12//10 1//10
f 12//11 13//11 1//11
f 13//12 3//12 1//12
f 15//13 14//13 2//13 3//13
f 14//14 16//14 4//14 2//14
f 16//15 5//15 4//15
f 18//16 17//16 6//16 5//16
f 19//17 7//17 6//17
f 19//18 20//18 8//18 7//18
f 20//19 21//19 9//19 8//19
f 21//20 10//20 9//20
f 22//21 11//21 10//21
f 22//22 23//22 12//22 11//22
f 23//23 13//23 12//23
f 15//24 3//24 13//24
f 25//25 24//25 14//25 15//25
f 26//26 16//26 14//26
f 26//27 18//27 16//27
f 28//28 27//28 17//28 18//28
f 29//29 19//29 17//29
f 29//30 20//30 19//30
f 31//31 30//31 21//31 20//31
f 30//32 32//32 21//32
f 33//33 25//33 15//33
f 35//34 34//34 24//34 25//34
f 36//35 26//35 24//35
f 36//36 37//36 26//36
f 37//37 38//37 27//37 28//37
f 38//38 39//38 29//38
f 39//39 40//39 29//39
f 40//40 41//40 30//40 31//40
f 41//41 42//41 30//41
f 45//45 35//45 25//45
f 46//46 36//46 34//46
f 47//47 44//47 42//47
f 49//48 48//48 43//48 44//48
f 50//49 45//49 43//49
f 50//50 51//50 45//50
f 52//51 46//51 35//51
f 52//52 36//52 46//52
f 52//53 37//53 36//53
f 52//54 38//54 37//54
f 52//55 39//55 38//55
f 52//56 40//56 39//56
f 52//57 41//57 40//57
f 52//58 53//58 41//58
f 52//59 54//59 53//59
f 52//60 55//60 54//60
f 52//61 56//61 55//61
f 52//62 35//62 56//62
f 57//63 53//63 42//63
f 57//64 58//64 53//64
f 58//65 59//65 41//65
f 60//66 54//66 44//66
f 57//67 53//67 54//67
f 57//68 47//68 42//68
f 57//69 49//69 47//69
f 48//70 61//70 43//70
f 61//71 60//71 54//71 55//71
f 60//72 49//72 44//72
f 60//73 61//73 48//73 49//73
f 50//74 62//74 45//74
f 62//75 55//75 56//75
f 61//76 43//76 55//76
f 61//77 62//77 50//77 48//77
f 51//78 63//78 35//78
f 62//79 56//79 35//79
f 62//80 45//80 56//80
f 47//81 49//81 44//81
f 44//82 49//82 60//82
f 54//83 60//83 57//83
f 43//84 48//84 50//84
f 61//85 48//85 43//85
f 62//86 61//86 55//86
f 42//87 47//87 57//87
f 59//88 42//88 41//88
f 62//89 50//89 45//89
f 63//90 50//90 62//90
f 42//91 53//91 57//91
f 44//92 54//92 60//92
f 61//93 55//93 43//93
f 62//94 56//94 45//94
f 57//96 60//96 49//96
f 35//98 46//98 34//98
f 51//99 35//99 45//99
f 51//100 50//100 63//100
f 59//101 57//101 47//101
f 58//102 57//102 59//102
f 47//103 42//103 59//103
f 62//104 35//104 63//104
f 58//105 41//105 53//105
f 21//106 32//106 10//106
f 10//107 32//107 22//107
f 42//108 32//108 30//108
f 23//109 33//109 13//109
f 13//110 33//110 15//110
f 25//111 33//111 45//111
f 29//113 31//113 20//113
f 40//114 31//114 29//114
f 24//115 34//115 36//115
f 14//116 24//116 26//116
f 26//117 28//117 18//117
f 37//118 28//118 26//118
f 17//119 27//119 29//119
f 29//120 27//120 38//120
f 16//121 18//121 5//121
f 6//122 17//122 19//122
usemtl mat21
f 42//42 22//42 32//42
f 44//43 43//43 23//43
f 45//44 33//44 23//44
f 23//95 43//95 45//95
f 42//97 44//97 22//97
f 23//112 22//112 44//112
usemtl mat11
f 66//123 65//123 64//123
f 69//124 68//124 67//124
f 65//125 69//125 67//125 64//125
f 71//126 70//126 65//126 66//126
f 73//127 72//127 66//127 64//127
f 70//128 74//128 69//128 65//128
f 74//129 75//129 68//129 69//129
f 75//130 71//130 66//130 68//130
f 72//131 76//131 68//131 66//131
f 76//132 77//132 67//132 68//132
f 77//133 73//133 64//133 67//133
f 77//134 76//134 72//134 73//134
f 78//135 70//135 71//135
f 78//136 79//136 74//136 70//136
f 79//137 75//137 74//137
f 79//138 78//138 71//138 75//138
